<?xml version="1.0" encoding="UTF-8" standalone="no"?>
<svg
   xmlns:dc="http://purl.org/dc/elements/1.1/"
   xmlns:cc="http://creativecommons.org/ns#"
   xmlns:rdf="http://www.w3.org/1999/02/22-rdf-syntax-ns#"
   xmlns:svg="http://www.w3.org/2000/svg"
   xmlns="http://www.w3.org/2000/svg"
   viewBox="0 0 209.30907 226.70079"
   height="226.70079"
   width="209.30907"
   xml:space="preserve"
   version="1.1"
   id="svg2"><metadata
     id="metadata8"><rdf:RDF><cc:Work
         rdf:about=""><dc:format>image/svg+xml</dc:format><dc:type
           rdf:resource="http://purl.org/dc/dcmitype/StillImage" /><dc:title></dc:title></cc:Work></rdf:RDF></metadata><defs
     id="defs6"><clipPath
       id="clipPath20"
       clipPathUnits="userSpaceOnUse"><path
         id="path22"
         d="m 7.2,7.2 153.04724,0 0,166.96063 -153.04724,0 L 7.2,7.2 Z" /></clipPath><clipPath
       id="clipPath30"
       clipPathUnits="userSpaceOnUse"><path
         id="path32"
         d="m 7.2,7.2 153.04724,0 0,166.96063 -153.04724,0 L 7.2,7.2 Z" /></clipPath><clipPath
       id="clipPath40"
       clipPathUnits="userSpaceOnUse"><path
         id="path42"
         d="m 7.2,7.2 153.04724,0 0,166.96063 -153.04724,0 L 7.2,7.2 Z" /></clipPath><clipPath
       id="clipPath50"
       clipPathUnits="userSpaceOnUse"><path
         id="path52"
         d="m 7.2,7.2 153.04724,0 0,166.96063 -153.04724,0 L 7.2,7.2 Z" /></clipPath><clipPath
       id="clipPath60"
       clipPathUnits="userSpaceOnUse"><path
         id="path62"
         d="m 7.2,7.2 153.04724,0 0,166.96063 -153.04724,0 L 7.2,7.2 Z" /></clipPath><clipPath
       id="clipPath70"
       clipPathUnits="userSpaceOnUse"><path
         id="path72"
         d="m 7.2,7.2 153.04724,0 0,166.96063 -153.04724,0 L 7.2,7.2 Z" /></clipPath><clipPath
       id="clipPath80"
       clipPathUnits="userSpaceOnUse"><path
         id="path82"
         d="m 7.2,7.2 153.04724,0 0,166.96063 -153.04724,0 L 7.2,7.2 Z" /></clipPath><clipPath
       id="clipPath90"
       clipPathUnits="userSpaceOnUse"><path
         id="path92"
         d="m 7.2,7.2 153.04724,0 0,166.96063 -153.04724,0 L 7.2,7.2 Z" /></clipPath><clipPath
       id="clipPath100"
       clipPathUnits="userSpaceOnUse"><path
         id="path102"
         d="m 7.2,7.2 153.04724,0 0,166.96063 -153.04724,0 L 7.2,7.2 Z" /></clipPath><clipPath
       id="clipPath110"
       clipPathUnits="userSpaceOnUse"><path
         id="path112"
         d="m 7.2,7.2 153.04724,0 0,166.96063 -153.04724,0 L 7.2,7.2 Z" /></clipPath><clipPath
       id="clipPath120"
       clipPathUnits="userSpaceOnUse"><path
         id="path122"
         d="m 7.2,7.2 153.04724,0 0,166.96063 -153.04724,0 L 7.2,7.2 Z" /></clipPath><clipPath
       id="clipPath130"
       clipPathUnits="userSpaceOnUse"><path
         id="path132"
         d="m 7.2,7.2 153.04724,0 0,166.96063 -153.04724,0 L 7.2,7.2 Z" /></clipPath><clipPath
       id="clipPath140"
       clipPathUnits="userSpaceOnUse"><path
         id="path142"
         d="m 7.2,7.2 153.04724,0 0,166.96063 -153.04724,0 L 7.2,7.2 Z" /></clipPath><clipPath
       id="clipPath150"
       clipPathUnits="userSpaceOnUse"><path
         id="path152"
         d="m 7.2,7.2 153.04724,0 0,166.96063 -153.04724,0 L 7.2,7.2 Z" /></clipPath><clipPath
       id="clipPath160"
       clipPathUnits="userSpaceOnUse"><path
         id="path162"
         d="m 7.2,7.2 153.04724,0 0,166.96063 -153.04724,0 L 7.2,7.2 Z" /></clipPath><clipPath
       id="clipPath170"
       clipPathUnits="userSpaceOnUse"><path
         id="path172"
         d="m 7.2,7.2 153.04724,0 0,166.96063 -153.04724,0 L 7.2,7.2 Z" /></clipPath><clipPath
       id="clipPath180"
       clipPathUnits="userSpaceOnUse"><path
         id="path182"
         d="m 7.2,7.2 153.04724,0 0,166.96063 -153.04724,0 L 7.2,7.2 Z" /></clipPath><clipPath
       id="clipPath190"
       clipPathUnits="userSpaceOnUse"><path
         id="path192"
         d="m 7.2,7.2 153.04724,0 0,166.96063 -153.04724,0 L 7.2,7.2 Z" /></clipPath><clipPath
       id="clipPath200"
       clipPathUnits="userSpaceOnUse"><path
         id="path202"
         d="m 7.2,7.2 153.04724,0 0,166.96063 -153.04724,0 L 7.2,7.2 Z" /></clipPath><clipPath
       id="clipPath210"
       clipPathUnits="userSpaceOnUse"><path
         id="path212"
         d="m 7.2,7.2 153.04724,0 0,166.96063 -153.04724,0 L 7.2,7.2 Z" /></clipPath><clipPath
       id="clipPath220"
       clipPathUnits="userSpaceOnUse"><path
         id="path222"
         d="m 7.2,7.2 153.04724,0 0,166.96063 -153.04724,0 L 7.2,7.2 Z" /></clipPath><clipPath
       id="clipPath230"
       clipPathUnits="userSpaceOnUse"><path
         id="path232"
         d="m 7.2,7.2 153.04724,0 0,166.96063 -153.04724,0 L 7.2,7.2 Z" /></clipPath><clipPath
       id="clipPath240"
       clipPathUnits="userSpaceOnUse"><path
         id="path242"
         d="m 7.2,7.2 153.04724,0 0,166.96063 -153.04724,0 L 7.2,7.2 Z" /></clipPath><clipPath
       id="clipPath250"
       clipPathUnits="userSpaceOnUse"><path
         id="path252"
         d="m 7.2,7.2 153.04724,0 0,166.96063 -153.04724,0 L 7.2,7.2 Z" /></clipPath><clipPath
       id="clipPath260"
       clipPathUnits="userSpaceOnUse"><path
         id="path262"
         d="m 7.2,7.2 153.04724,0 0,166.96063 -153.04724,0 L 7.2,7.2 Z" /></clipPath><clipPath
       id="clipPath270"
       clipPathUnits="userSpaceOnUse"><path
         id="path272"
         d="m 7.2,7.2 153.04724,0 0,166.96063 -153.04724,0 L 7.2,7.2 Z" /></clipPath><clipPath
       id="clipPath280"
       clipPathUnits="userSpaceOnUse"><path
         id="path282"
         d="m 7.2,7.2 153.04724,0 0,166.96063 -153.04724,0 L 7.2,7.2 Z" /></clipPath><clipPath
       id="clipPath290"
       clipPathUnits="userSpaceOnUse"><path
         id="path292"
         d="m -1.75,-1.75 3.5,0 0,3.5 -3.5,0 0,-3.5 z" /></clipPath><clipPath
       id="clipPath300"
       clipPathUnits="userSpaceOnUse"><path
         id="path302"
         d="m 7.2,7.2 153.04724,0 0,166.96063 -153.04724,0 L 7.2,7.2 Z" /></clipPath><clipPath
       id="clipPath310"
       clipPathUnits="userSpaceOnUse"><path
         id="path312"
         d="m 7.2,7.2 153.04724,0 0,166.96063 -153.04724,0 L 7.2,7.2 Z" /></clipPath></defs><g
     transform="matrix(1.25,0,0,-1.25,0,226.70079)"
     id="g10"><path
       id="path12"
       style="fill:#ffffff;fill-opacity:1;fill-rule:nonzero;stroke:none"
       d="m 0,0 167.44724,0 0,181.36063 L 0,181.36063 0,0 Z" /><path
       id="path14"
       style="fill:#ffffff;fill-opacity:1;fill-rule:nonzero;stroke:none"
       d="m 7.2,7.2 153.04724,0 0,166.96063 -153.04724,0 L 7.2,7.2 Z" /><g
       id="g16"><g
         clip-path="url(#clipPath20)"
         id="g18"><path
           id="path24"
           style="fill:none;stroke:#000000;stroke-width:1;stroke-linecap:butt;stroke-linejoin:round;stroke-miterlimit:10;stroke-dasharray:none;stroke-opacity:1"
           d="m 110.15906,132.97701 c 1.32835,0 2.60248,0.52776 3.54176,1.46705 0.93929,0.93929 1.46705,2.21341 1.46705,3.54177 0,1.32835 -0.52776,2.60248 -1.46705,3.54177 -0.93928,0.93928 -2.21341,1.46705 -3.54176,1.46705 -1.32836,0 -2.60249,-0.52777 -3.54177,-1.46705 -0.93929,-0.93929 -1.46705,-2.21342 -1.46705,-3.54177 0,-1.32836 0.52776,-2.60248 1.46705,-3.54177 0.93928,-0.93929 2.21341,-1.46705 3.54177,-1.46705 z" /></g></g><g
       id="g26"><g
         clip-path="url(#clipPath30)"
         id="g28"><path
           id="path34"
           style="fill:none;stroke:#000000;stroke-width:1;stroke-linecap:butt;stroke-linejoin:round;stroke-miterlimit:10;stroke-dasharray:none;stroke-opacity:1"
           d="m 68.418898,132.97701 c 1.328354,0 2.602481,0.52776 3.541769,1.46705 0.939289,0.93929 1.46705,2.21341 1.46705,3.54177 0,1.32835 -0.527761,2.60248 -1.46705,3.54177 -0.939288,0.93928 -2.213415,1.46705 -3.541769,1.46705 -1.328355,0 -2.602482,-0.52777 -3.54177,-1.46705 -0.939289,-0.93929 -1.467049,-2.21342 -1.467049,-3.54177 0,-1.32836 0.52776,-2.60248 1.467049,-3.54177 0.939288,-0.93929 2.213415,-1.46705 3.54177,-1.46705 z" /></g></g><g
       id="g36"><g
         clip-path="url(#clipPath40)"
         id="g38"><path
           id="path44"
           style="fill:#ff6666;fill-opacity:1;fill-rule:nonzero;stroke:#ff6666;stroke-width:1;stroke-linecap:butt;stroke-linejoin:round;stroke-miterlimit:10;stroke-dasharray:none;stroke-opacity:1"
           d="m 45.469117,91.647987 -1.154545,-1.0425 -0.185718,0.668978 -2.145017,-0.595491 -7.45e-4,0.0027 2.145017,0.59549 -0.185718,0.668977 1.526726,-0.298136 z" /></g></g><g
       id="g46"><g
         clip-path="url(#clipPath50)"
         id="g48"><path
           id="path54"
           style="fill:#ff6666;fill-opacity:1;fill-rule:nonzero;stroke:#ff6666;stroke-width:1;stroke-linecap:butt;stroke-linejoin:round;stroke-miterlimit:10;stroke-dasharray:none;stroke-opacity:1"
           d="m 38.497812,89.712643 1.154545,1.042499 0.185718,-0.668977 2.145017,0.595491 7.45e-4,-0.0027 -2.145017,-0.59549 0.185718,-0.668977 -1.526726,0.298136 z" /></g></g><g
       id="g56"><g
         clip-path="url(#clipPath60)"
         id="g58"><path
           id="path64"
           style="fill:#ff6666;fill-opacity:1;fill-rule:nonzero;stroke:#ff6666;stroke-width:1;stroke-linecap:butt;stroke-linejoin:round;stroke-miterlimit:10;stroke-dasharray:none;stroke-opacity:1"
           d="m 52.411198,91.647987 1.526726,0.298136 -0.185719,-0.668977 2.145018,-0.59549 -7.45e-4,-0.0027 -2.145017,0.595491 -0.185718,-0.668978 -1.154545,1.0425 z" /></g></g><g
       id="g66"><g
         clip-path="url(#clipPath70)"
         id="g68"><path
           id="path74"
           style="fill:#ff6666;fill-opacity:1;fill-rule:nonzero;stroke:#ff6666;stroke-width:1;stroke-linecap:butt;stroke-linejoin:round;stroke-miterlimit:10;stroke-dasharray:none;stroke-opacity:1"
           d="m 59.382503,89.712643 -1.526726,-0.298136 0.185718,0.668977 -2.145017,0.59549 7.45e-4,0.0027 2.145017,-0.595491 0.185718,0.668977 1.154545,-1.042499 z" /></g></g><g
       id="g76"><g
         clip-path="url(#clipPath80)"
         id="g78"><path
           id="path84"
           style="fill:#6666ff;fill-opacity:1;fill-rule:nonzero;stroke:#6666ff;stroke-width:1;stroke-linecap:butt;stroke-linejoin:round;stroke-miterlimit:10;stroke-dasharray:none;stroke-opacity:1"
           d="m 49.680252,57.491147 1.359769,-0.755517 -0.573012,-0.392019 1.256974,-1.837314 -0.0023,-0.0016 -1.256974,1.837314 -0.573012,-0.392019 -0.211448,1.541126 z" /></g></g><g
       id="g86"><g
         clip-path="url(#clipPath90)"
         id="g88"><path
           id="path94"
           style="fill:#6666ff;fill-opacity:1;fill-rule:nonzero;stroke:#6666ff;stroke-width:1;stroke-linecap:butt;stroke-linejoin:round;stroke-miterlimit:10;stroke-dasharray:none;stroke-opacity:1"
           d="m 53.765418,51.519876 -1.35977,0.755517 0.573012,0.392019 -1.256974,1.837314 0.0023,0.0016 1.256974,-1.837314 0.573012,0.392019 0.211449,-1.541126 z" /></g></g><g
       id="g96"><g
         clip-path="url(#clipPath100)"
         id="g98"><path
           id="path104"
           style="fill:#6666ff;fill-opacity:1;fill-rule:nonzero;stroke:#6666ff;stroke-width:1;stroke-linecap:butt;stroke-linejoin:round;stroke-miterlimit:10;stroke-dasharray:none;stroke-opacity:1"
           d="m 89.194267,57.491147 1.35977,-0.755517 -0.573012,-0.392019 1.256974,-1.837314 -0.0023,-0.0016 -1.256974,1.837314 -0.573012,-0.392019 -0.211449,1.541126 z" /></g></g><g
       id="g106"><g
         clip-path="url(#clipPath110)"
         id="g108"><path
           id="path114"
           style="fill:#6666ff;fill-opacity:1;fill-rule:nonzero;stroke:#6666ff;stroke-width:1;stroke-linecap:butt;stroke-linejoin:round;stroke-miterlimit:10;stroke-dasharray:none;stroke-opacity:1"
           d="m 93.279433,51.519876 -1.359769,0.755517 0.573012,0.392019 -1.256974,1.837314 0.0023,0.0016 1.256974,-1.837314 0.573012,0.392019 0.211448,-1.541126 z" /></g></g><g
       id="g116"><g
         clip-path="url(#clipPath120)"
         id="g118"><path
           id="path124"
           style="fill:#000000;fill-opacity:1;fill-rule:nonzero;stroke:#000000;stroke-width:1;stroke-linecap:butt;stroke-linejoin:round;stroke-miterlimit:10;stroke-dasharray:none;stroke-opacity:1"
           d="m 110.15906,165.8126 1.39133,-5.56536 -1.38994,2.78268 0,-25.04409 -0.003,0 0,25.04409 -1.38994,-2.78268 1.39134,5.56536 z" /></g></g><g
       id="g126"><g
         clip-path="url(#clipPath130)"
         id="g128"><path
           id="path134"
           style="fill:#000000;fill-opacity:1;fill-rule:nonzero;stroke:#000000;stroke-width:1;stroke-linecap:butt;stroke-linejoin:round;stroke-miterlimit:10;stroke-dasharray:none;stroke-opacity:1"
           d="m 137.98583,137.98583 -5.56536,-1.39134 2.78268,1.38995 -25.04409,0 0,0.003 25.04409,0 -2.78268,1.38995 5.56536,-1.39134 z" /></g></g><g
       id="g136"><g
         clip-path="url(#clipPath140)"
         id="g138"><path
           id="path144"
           style="fill:#000000;fill-opacity:1;fill-rule:nonzero;stroke:#000000;stroke-width:1;stroke-linecap:butt;stroke-linejoin:round;stroke-miterlimit:10;stroke-dasharray:none;stroke-opacity:1"
           d="m 56.315211,163.04236 3.673564,-4.40612 -2.461942,1.90107 10.893317,-22.55088 -0.0025,-0.001 -10.893318,22.55088 -0.0412,-3.11023 -1.167911,5.61649 z" /></g></g><g
       id="g146"><g
         clip-path="url(#clipPath150)"
         id="g148"><path
           id="path154"
           style="fill:#000000;fill-opacity:1;fill-rule:nonzero;stroke:#000000;stroke-width:1;stroke-linecap:butt;stroke-linejoin:round;stroke-miterlimit:10;stroke-dasharray:none;stroke-opacity:1"
           d="m 93.475434,150.08951 -4.406123,-3.67356 1.901074,2.46194 -22.550882,-10.89332 -0.0012,0.003 22.550883,10.89332 -3.110233,0.0412 5.616492,1.16791 z" /></g></g><g
       id="g156"><g
         clip-path="url(#clipPath160)"
         id="g158"><path
           id="path164"
           style="fill:none;stroke:#000000;stroke-width:1;stroke-linecap:square;stroke-linejoin:round;stroke-miterlimit:10;stroke-dasharray:none;stroke-opacity:1"
           d="M 168.44724,117.91837 118.65338,118.30985 -1,118.44672 l 0,0" /></g></g><g
       id="g166"><g
         clip-path="url(#clipPath170)"
         id="g168"><path
           id="path174"
           style="fill:none;stroke:#808080;stroke-width:1;stroke-linecap:square;stroke-linejoin:round;stroke-miterlimit:10;stroke-dasharray:none;stroke-opacity:1"
           d="M 168.44724,62.263381 118.39085,62.656924 -1,62.792834 l 0,0" /></g></g><g
       id="g176"><g
         clip-path="url(#clipPath180)"
         id="g178"><path
           id="path184"
           style="fill:none;stroke:#0000ff;stroke-width:1;stroke-linecap:square;stroke-linejoin:round;stroke-miterlimit:10;stroke-dasharray:none;stroke-opacity:0.6"
           d="m 35.026772,118.50709 1.277529,-2.78273 1.277572,-2.78281 1.277615,-2.78291 1.277656,-2.783 1.277699,-2.78309 1.277741,-2.78319 1.277784,-2.783272 1.277826,-2.783369 1.277869,-2.783462 1.27791,-2.783554 1.277954,-2.783646 1.277996,-2.78374 1.278038,-2.783832 1.278081,-2.783924 1.278124,-2.784018 1.278166,-2.78411 1.278209,-2.784204 1.278251,-2.784296 1.278294,-2.784389 1.278337,-2.784482 1.963457,-2.78563 1.963612,-2.785848 1.963766,-2.786068 1.963921,-2.786288 1.964076,-2.786508 1.964231,-2.786728 1.964387,-2.786948 1.964541,-2.787168 1.964697,-2.787389 1.964853,-2.787609 1.965008,-2.78783 1.965164,-2.788051 1.965319,-2.788273 1.965476,-2.788493 1.965631,-2.788715 1.965788,-2.788937 1.965944,-2.789158 1.9661,-2.78938 1.966257,-2.7896026 1.966413,-2.7898246 1.966566,-2.7900469 1.96673,-2.7902694 L 105.5797,-1" /></g></g><g
       id="g186"><g
         clip-path="url(#clipPath190)"
         id="g188"><path
           id="path194"
           style="fill:none;stroke:#ff0000;stroke-width:1;stroke-linecap:square;stroke-linejoin:round;stroke-miterlimit:10;stroke-dasharray:none;stroke-opacity:0.6"
           d="m 35.026772,118.50709 0.701902,-2.78269 0.70191,-2.78272 0.701917,-2.78275 0.701924,-2.78277 0.70193,-2.78281 0.701938,-2.78283 0.701945,-2.782855 0.701952,-2.782886 0.701959,-2.782914 0.701965,-2.782942 0.701973,-2.78297 0.70198,-2.782997 0.701987,-2.783026 0.701994,-2.783053 0.702001,-2.783082 0.702008,-2.78311 0.702015,-2.783137 0.702022,-2.783166 0.70203,-2.783193 0.702036,-2.783222" /></g></g><g
       id="g196"><g
         clip-path="url(#clipPath200)"
         id="g198"><path
           id="path204"
           style="fill:none;stroke:#0000ff;stroke-width:1;stroke-linecap:square;stroke-linejoin:round;stroke-miterlimit:10;stroke-dasharray:none;stroke-opacity:0.6"
           d="m 49.06616,62.847967 1.965272,-2.784349 1.965427,-2.784568 1.965582,-2.784788 1.965737,-2.785007 1.965892,-2.785227 1.966047,-2.785447 1.966203,-2.785667 1.966358,-2.785887 1.966513,-2.786107 1.966669,-2.786328 1.966825,-2.786549 1.96698,-2.78677 1.967137,-2.78699 1.967293,-2.787212 1.967448,-2.787434 1.967606,-2.787654 1.967761,-2.787877 1.967918,-2.788098 L 86.432903,9.9076883 88.401134,7.119146 90.369523,4.3303816 92.338068,1.5413946 94.131855,-1" /></g></g><g
       id="g206"><g
         clip-path="url(#clipPath210)"
         id="g208"><path
           id="path214"
           style="fill:none;stroke:#0000ff;stroke-width:1;stroke-linecap:square;stroke-linejoin:round;stroke-miterlimit:10;stroke-dasharray:none;stroke-opacity:0.6"
           d="m 86.304995,118.43293 1.269475,-2.78641 1.269518,-2.7865 1.269559,-2.78659 1.269602,-2.78668 1.269643,-2.78678 1.269686,-2.78687 1.269728,-2.786959 1.26977,-2.787053 1.269812,-2.787146 1.269855,-2.787239 1.269897,-2.787331 1.26994,-2.787424 1.26998,-2.787517 1.27002,-2.78761 1.27007,-2.787703 1.27011,-2.787796 1.27015,-2.787888 1.27019,-2.787982 1.27023,-2.788075 1.27028,-2.788168 1.95539,-2.791297 1.95555,-2.791517 1.9557,-2.791736 1.95585,-2.791957 1.95601,-2.792177 1.95616,-2.792397 1.95632,-2.792619 1.95647,-2.792838 1.95663,-2.79306 1.95678,-2.793281 1.95694,-2.793502 1.95709,-2.793724 1.95724,-2.793945 1.95741,-2.794167 1.95755,-2.794389 1.95771,-2.794611 1.95787,-2.794833 1.95803,-2.795055 1.95818,-2.795278 1.95833,-2.7955005 1.95849,-2.7957234 1.95865,-2.7959464 L 156.31741,-1" /></g></g><g
       id="g216"><g
         clip-path="url(#clipPath220)"
         id="g218"><path
           id="path224"
           style="fill:none;stroke:#0000ff;stroke-width:1;stroke-linecap:square;stroke-linejoin:round;stroke-miterlimit:10;stroke-dasharray:none;stroke-opacity:0.6"
           d="m 86.304995,118.43293 -1.285574,-2.77902 -1.285615,-2.77911 -1.285659,-2.7792 -1.285701,-2.77929 -1.285743,-2.77939 -1.285786,-2.77947 -1.285829,-2.779571 -1.285871,-2.779662 -1.285914,-2.779753 -1.285957,-2.779847 -1.286,-2.779938 -1.286042,-2.780031 -1.286085,-2.780124 -1.286128,-2.780216 -1.286171,-2.780309 -1.286213,-2.780402 -1.286257,-2.780495 -1.286299,-2.780587 -1.286343,-2.78068 -1.286385,-2.780773" /></g></g><g
       id="g226"><g
         clip-path="url(#clipPath230)"
         id="g228"><path
           id="path234"
           style="fill:none;stroke:#0000ff;stroke-width:1;stroke-linecap:square;stroke-linejoin:round;stroke-miterlimit:10;stroke-dasharray:none;stroke-opacity:0.6"
           d="m 74.749487,118.46258 1.271291,-2.78557 1.271334,-2.78567 1.271376,-2.78577 1.271417,-2.78585 1.27146,-2.78595 1.271502,-2.78604 1.271544,-2.786134 1.271587,-2.786225 1.271628,-2.786318 1.271671,-2.786411 1.271713,-2.786503 1.271756,-2.786595 1.271797,-2.786689 1.27184,-2.786781 1.271883,-2.786875 1.271925,-2.786967 1.271967,-2.78706 1.272009,-2.787154 1.272053,-2.787246 1.27209,-2.78734 1.95721,-2.790021 1.95737,-2.790242 1.95752,-2.790461 1.95767,-2.790681 1.95783,-2.790902 1.95798,-2.791121 1.95814,-2.791343 1.95829,-2.791563 1.95845,-2.791784 1.9586,-2.792005 1.95875,-2.792226 1.95892,-2.792447 1.95906,-2.792669 1.95923,-2.79289 1.95937,-2.793113 1.95954,-2.793334 1.95969,-2.793556 1.95984,-2.793778 1.96,-2.7940014 1.96016,-2.7942235 1.96032,-2.7944463 1.96047,-2.7946691 L 144.89257,-1" /></g></g><g
       id="g236"><g
         clip-path="url(#clipPath240)"
         id="g238"><path
           id="path244"
           style="fill:none;stroke:#0000ff;stroke-width:1;stroke-linecap:square;stroke-linejoin:round;stroke-miterlimit:10;stroke-dasharray:none;stroke-opacity:0.6"
           d="m 74.749487,118.46258 -1.283762,-2.77985 -1.283804,-2.77994 -1.283846,-2.78004 -1.283889,-2.78013 -1.283932,-2.78022 -1.283974,-2.78032 -1.284016,-2.780406 -1.28406,-2.780499 L 63.194102,93.440584 61.909958,90.6599 60.62577,87.879124 59.34154,85.098255 58.057268,82.317294 56.772952,79.53624 55.488594,76.755093 54.204193,73.973853 52.919749,71.192521 51.635262,68.411096 50.350732,65.629578 49.06616,62.847967" /></g></g><g
       id="g246"><g
         clip-path="url(#clipPath250)"
         id="g248"><path
           id="path254"
           style="fill:none;stroke:#0000ff;stroke-width:1;stroke-linecap:square;stroke-linejoin:round;stroke-miterlimit:10;stroke-dasharray:none;stroke-opacity:0.6"
           d="m 63.193962,118.48471 1.273107,-2.78475 1.273149,-2.78484 1.273191,-2.78493 1.273234,-2.78503 1.273275,-2.78512 1.273318,-2.78521 1.27336,-2.785303 1.273402,-2.785396 1.273444,-2.785488 1.273487,-2.785581 1.273529,-2.785674 1.273572,-2.785766 1.273614,-2.785859 1.273656,-2.785952 1.273698,-2.786045 1.273742,-2.786137 1.273783,-2.786231 1.273826,-2.786324 1.273869,-2.786416 1.273911,-2.78651 1.959029,-2.788746 1.959183,-2.788964 1.959337,-2.789185 1.959492,-2.789405 1.959646,-2.789625 1.959804,-2.789845 1.95995,-2.790065 1.96011,-2.790286 1.96027,-2.790507 1.96042,-2.790727 1.96058,-2.790949 1.96073,-2.79117 1.96089,-2.791391 1.96104,-2.791613 1.9612,-2.791835 1.96135,-2.792056 1.96151,-2.792278 1.96167,-2.792501 1.96182,-2.7927227 1.96198,-2.7929452 1.96213,-2.7931679 1.96229,-2.7933907 L 133.46257,-1" /></g></g><g
       id="g256"><g
         clip-path="url(#clipPath260)"
         id="g258"><path
           id="path264"
           style="fill:none;stroke:#ff0000;stroke-width:1;stroke-linecap:square;stroke-linejoin:round;stroke-miterlimit:10;stroke-dasharray:none;stroke-opacity:0.6"
           d="m 63.193962,118.48471 -0.706323,-2.78157 -0.70633,-2.7816 -0.706337,-2.78163 -0.706344,-2.78166 -0.706351,-2.78168 -0.706358,-2.78171 -0.706366,-2.78174 -0.706372,-2.781767 -0.70638,-2.781796 -0.706386,-2.781823 -0.706394,-2.78185 -0.7064,-2.781879 L 54.011213,82.322098 53.304798,79.540163 52.598376,76.758201 51.891947,73.97621 51.185511,71.194191 50.479068,68.412144 49.772617,65.63007 49.06616,62.847967" /></g></g><g
       id="g266"><g
         clip-path="url(#clipPath270)"
         id="g268"><path
           id="path274"
           style="fill:#ffffff;fill-opacity:1;fill-rule:nonzero;stroke:#000000;stroke-width:2;stroke-linecap:butt;stroke-linejoin:miter;stroke-miterlimit:10;stroke-dasharray:none;stroke-opacity:1"
           d="m 35.026772,123.50709 5,10 -10,0 5,-10 z" /></g></g><g
       id="g276"><g
         clip-path="url(#clipPath280)"
         id="g278"><g
           transform="translate(110.15906,137.98583)"
           id="g284"><g
             id="g286"><g
               clip-path="url(#clipPath290)"
               id="g288"><path
                 id="path294"
                 style="fill:#000000;fill-opacity:1;fill-rule:nonzero;stroke:#000000;stroke-width:0.5;stroke-linecap:butt;stroke-linejoin:round;stroke-miterlimit:10;stroke-dasharray:none;stroke-opacity:1"
                 d="m 0,-1.5 c 0.39780465,0 0.77936981,0.1580495 1.0606602,0.4393398 C 1.3419505,-0.77936981 1.5,-0.39780465 1.5,0 1.5,0.39780465 1.3419505,0.77936981 1.0606602,1.0606602 0.77936981,1.3419505 0.39780465,1.5 0,1.5 -0.39780465,1.5 -0.77936981,1.3419505 -1.0606602,1.0606602 -1.3419505,0.77936981 -1.5,0.39780465 -1.5,0 c 0,-0.39780465 0.1580495,-0.77936981 0.4393398,-1.0606602 C -0.77936981,-1.3419505 -0.39780465,-1.5 0,-1.5 Z" /></g></g></g></g></g><g
       id="g296"><g
         clip-path="url(#clipPath300)"
         id="g298"><path
           id="path304"
           style="fill:none;stroke:#000000;stroke-width:1;stroke-linecap:square;stroke-linejoin:round;stroke-miterlimit:10;stroke-dasharray:none;stroke-opacity:1"
           d="m 64.877128,134.44406 7.083539,7.08354" /></g></g><g
       id="g306"><g
         clip-path="url(#clipPath310)"
         id="g308"><path
           id="path314"
           style="fill:none;stroke:#000000;stroke-width:1;stroke-linecap:square;stroke-linejoin:round;stroke-miterlimit:10;stroke-dasharray:none;stroke-opacity:1"
           d="m 64.877128,141.5276 7.083539,-7.08354" /></g></g><path
       id="path316"
       style="fill:none;stroke:#000000;stroke-width:1;stroke-linecap:butt;stroke-linejoin:round;stroke-miterlimit:10;stroke-dasharray:none;stroke-opacity:1"
       d="m 7.2,174.16063 153.04724,0" /><path
       id="path318"
       style="fill:none;stroke:#000000;stroke-width:1;stroke-linecap:butt;stroke-linejoin:round;stroke-miterlimit:10;stroke-dasharray:none;stroke-opacity:1"
       d="m 160.24724,7.2 0,166.96063" /><path
       id="path320"
       style="fill:none;stroke:#000000;stroke-width:1;stroke-linecap:butt;stroke-linejoin:round;stroke-miterlimit:10;stroke-dasharray:none;stroke-opacity:1"
       d="m 7.2,7.2 153.04724,0" /><path
       id="path322"
       style="fill:none;stroke:#000000;stroke-width:1;stroke-linecap:butt;stroke-linejoin:round;stroke-miterlimit:10;stroke-dasharray:none;stroke-opacity:1"
       d="m 7.2,7.2 0,166.96063" /><text
       id="text324"
       style="font-variant:normal;font-weight:normal;font-size:9px;font-family:'Bitstream Vera Sans';-inkscape-font-specification:BitstreamVeraSans-Roman;writing-mode:lr-tb;fill:#000000;fill-opacity:1;fill-rule:nonzero;stroke:none"
       transform="matrix(1,0,0,-1,94.053562,18.543141)"><tspan
         id="tspan326"
         y="0"
         x="0">P</tspan></text>
<text
       id="text328"
       style="font-variant:normal;font-weight:normal;font-size:9px;font-family:'Bitstream Vera Sans';-inkscape-font-specification:BitstreamVeraSans-Roman;writing-mode:lr-tb;fill:#000000;fill-opacity:1;fill-rule:nonzero;stroke:none"
       transform="matrix(1,0,0,-1,63.905293,18.575262)"><tspan
         id="tspan330"
         y="0"
         x="0 5.427">Ps</tspan></text>
<text
       id="text332"
       style="font-variant:normal;font-weight:normal;font-size:9px;font-family:'Bitstream Vera Sans';-inkscape-font-specification:BitstreamVeraSans-Roman;writing-mode:lr-tb;fill:#000000;fill-opacity:1;fill-rule:nonzero;stroke:none"
       transform="matrix(1,0,0,-1,81.11345,38.181145)"><tspan
         id="tspan334"
         y="0"
         x="0 5.427 11.142 15.831">Ppss</tspan></text>
<text
       id="text336"
       style="font-variant:normal;font-weight:normal;font-size:9px;font-family:'Bitstream Vera Sans';-inkscape-font-specification:BitstreamVeraSans-Roman;writing-mode:lr-tb;fill:#000000;fill-opacity:1;fill-rule:nonzero;stroke:none"
       transform="matrix(1,0,0,-1,107.69441,35.130939)"><tspan
         id="tspan338"
         y="0"
         x="0 5.427 11.142 16.857">Ppps</tspan></text>
<text
       id="text340"
       style="font-variant:normal;font-weight:normal;font-size:9px;font-family:'Bitstream Vera Sans';-inkscape-font-specification:BitstreamVeraSans-Roman;writing-mode:lr-tb;fill:#000000;fill-opacity:1;fill-rule:nonzero;stroke:none"
       transform="matrix(1,0,0,-1,133.30659,32.073236)"><tspan
         id="tspan342"
         y="0"
         x="0 5.427 11.142 16.857">Pppp</tspan></text>
<text
       id="text344"
       style="font-variant:normal;font-weight:normal;font-size:9px;font-family:'Bitstream Vera Sans';-inkscape-font-specification:BitstreamVeraSans-Roman;writing-mode:lr-tb;fill:#000000;fill-opacity:1;fill-rule:nonzero;stroke:none"
       transform="matrix(1,0,0,-1,114.05807,156.7686)"><tspan
         id="tspan346"
         y="0"
         x="0">Z</tspan></text>
<text
       id="text348"
       style="font-variant:normal;font-weight:normal;font-size:9px;font-family:'Bitstream Vera Sans';-inkscape-font-specification:BitstreamVeraSans-Roman;writing-mode:lr-tb;fill:#000000;fill-opacity:1;fill-rule:nonzero;stroke:none"
       transform="matrix(1,0,0,-1,128.94964,128.92275)"><tspan
         id="tspan350"
         y="0"
         x="0">N</tspan></text>
<text
       id="text352"
       style="font-variant:normal;font-weight:normal;font-size:9px;font-family:'Bitstream Vera Sans';-inkscape-font-specification:BitstreamVeraSans-Roman;writing-mode:lr-tb;fill:#000000;fill-opacity:1;fill-rule:nonzero;stroke:none"
       transform="matrix(1,0,0,-1,105.08927,125.93124)"><tspan
         id="tspan354"
         y="0"
         x="0">E</tspan></text>
<text
       id="text356"
       style="font-variant:normal;font-weight:normal;font-size:9px;font-family:'Bitstream Vera Sans';-inkscape-font-specification:BitstreamVeraSans-Roman;writing-mode:lr-tb;fill:#000000;fill-opacity:1;fill-rule:nonzero;stroke:none"
       transform="matrix(1,0,0,-1,63.053131,157.5129)"><tspan
         id="tspan358"
         y="0"
         x="0">L</tspan></text>
<text
       id="text360"
       style="font-variant:normal;font-weight:normal;font-size:9px;font-family:'Bitstream Vera Sans';-inkscape-font-specification:BitstreamVeraSans-Roman;writing-mode:lr-tb;fill:#000000;fill-opacity:1;fill-rule:nonzero;stroke:none"
       transform="matrix(1,0,0,-1,87.391281,138.82816)"><tspan
         id="tspan362"
         y="0"
         x="0">Q</tspan></text>
<text
       id="text364"
       style="font-variant:normal;font-weight:normal;font-size:9px;font-family:'Bitstream Vera Sans';-inkscape-font-specification:BitstreamVeraSans-Roman;writing-mode:lr-tb;fill:#000000;fill-opacity:1;fill-rule:nonzero;stroke:none"
       transform="matrix(1,0,0,-1,67.134665,125.5963)"><tspan
         id="tspan366"
         y="0"
         x="0">T</tspan></text>
<path
       id="path368"
       style="fill:none;stroke:#000000;stroke-width:1;stroke-linecap:round;stroke-linejoin:round;stroke-miterlimit:10;stroke-dasharray:none;stroke-opacity:1"
       d="m 35.308916,43.423883 c 4.16048,5.930252 8.106921,11.55542 11.839325,16.875503" /><path
       id="path370"
       style="fill:none;stroke:#000000;stroke-width:1;stroke-linecap:round;stroke-linejoin:round;stroke-miterlimit:10;stroke-dasharray:none;stroke-opacity:1"
       d="m 43.607144,58.386107 3.541097,1.913279 -0.594036,-3.980844" /><text
       id="text372"
       style="font-variant:normal;font-weight:normal;font-size:9px;font-family:'Bitstream Vera Sans';-inkscape-font-specification:BitstreamVeraSans-Roman;writing-mode:lr-tb;fill:#000000;fill-opacity:1;fill-rule:nonzero;stroke:none"
       transform="matrix(1,0,0,-1,8.9401575,32.941043)"><tspan
         id="tspan374"
         y="0"
         x="0 5.7150002 8.217 13.752 17.451 22.400999 24.903 30.608999">piercing</tspan></text>
<text
       id="text376"
       style="font-variant:normal;font-weight:normal;font-size:9px;font-family:'Bitstream Vera Sans';-inkscape-font-specification:BitstreamVeraSans-Roman;writing-mode:lr-tb;fill:#000000;fill-opacity:1;fill-rule:nonzero;stroke:none"
       transform="matrix(1,0,0,-1,8.9401575,22.853543)"><tspan
         id="tspan378"
         y="0"
         x="0 5.7150002 11.223 13.725 19.431">point</tspan></text>
</g></svg>